<svg xmlns="http://www.w3.org/2000/svg" width="124" height="29" viewBox="0 0 124 29">
    <g fill="none" fill-rule="evenodd">
        <path fill="#777" d="M38.65 18.037c.088 1.474.71 2.665 1.868 3.573 1.158.907 2.632 1.36 4.424 1.36 1.895 0 3.406-.453 4.532-1.36 1.126-.908 1.688-2.115 1.688-3.62 0-1.198-.386-2.153-1.16-2.866-.772-.714-2.019-1.284-3.74-1.712l-1.855-.476c-1.26-.325-2.174-.72-2.741-1.183-.567-.464-.85-1.064-.85-1.801 0-.944.392-1.714 1.177-2.313.785-.598 1.772-.898 2.961-.898 1.221 0 2.224.296 3.01.886.784.59 1.216 1.37 1.296 2.337h1.629c-.048-1.364-.624-2.487-1.73-3.371-1.107-.884-2.492-1.326-4.157-1.326-1.69 0-3.09.444-4.205 1.332-1.114.888-1.67 2.025-1.67 3.412 0 2.164 1.53 3.634 4.59 4.411l2.13.547c1.276.317 2.203.73 2.782 1.237.579.507.868 1.16.868 1.961 0 .96-.414 1.754-1.242 2.384-.829.63-1.886.946-3.17.946-1.34 0-2.452-.32-3.336-.958-.884-.638-1.374-1.472-1.469-2.502h-1.63zm19.934-6.896c-1.15 0-2.095.39-2.837 1.17-.741.782-1.147 1.81-1.219 3.086h7.969c-.016-1.268-.383-2.295-1.1-3.08-.718-.784-1.655-1.176-2.813-1.176zm3.83 7.93h1.558c-.183 1.094-.758 1.996-1.725 2.705-.967.71-2.149 1.064-3.544 1.064-1.768 0-3.178-.582-4.228-1.748-1.05-1.165-1.576-2.754-1.576-4.767 0-1.99.521-3.583 1.564-4.78 1.043-1.197 2.424-1.795 4.145-1.795 1.689 0 3.032.562 4.032 1.688.999 1.125 1.498 2.643 1.498 4.554v.69h-9.61v.082c0 1.451.385 2.594 1.154 3.43.769.837 1.788 1.255 3.057 1.255.959 0 1.764-.22 2.414-.66.65-.44 1.07-1.012 1.26-1.718zm4.602-12.246v3.067h-1.831v1.32h1.831v8.335c0 1.157.23 1.983.69 2.479.46.495 1.221.743 2.284.743.166 0 .384-.008.654-.024s.448-.036.535-.06v-1.343a5.648 5.648 0 0 1-.41.03c-.226.012-.383.018-.47.018-.595 0-1.029-.151-1.302-.452-.274-.301-.41-.785-.41-1.45v-8.276h2.532v-1.32h-2.533V6.825h-1.57zm6.423 15.872h1.57v-7.811c0-1.102.307-2 .921-2.693.615-.694 1.398-1.04 2.35-1.04.871 0 1.583.279 2.134.838.551.559.827 1.298.827 2.217v8.49h1.57v-8.002c0-1.039.3-1.889.904-2.55.602-.663 1.383-.993 2.342-.993.936 0 1.668.285 2.195.856.527.57.79 1.355.79 2.354v8.334h1.583v-8.69c0-1.3-.38-2.335-1.136-3.104-.757-.769-1.759-1.153-3.003-1.153-.96 0-1.798.251-2.516.755a4.206 4.206 0 0 0-1.54 1.932h-.036a3.677 3.677 0 0 0-1.332-1.95c-.65-.492-1.439-.737-2.366-.737-.912 0-1.695.233-2.35.701a3.76 3.76 0 0 0-1.385 1.831h-.048v-2.39H73.44v12.805zm25.118.143c-1.76 0-3.17-.592-4.228-1.777-1.058-1.185-1.587-2.777-1.587-4.774 0-1.998.53-3.587 1.593-4.768 1.063-1.18 2.47-1.771 4.222-1.771 1.76 0 3.172.59 4.234 1.771 1.063 1.181 1.594 2.77 1.594 4.768 0 1.997-.531 3.589-1.594 4.774-1.062 1.185-2.473 1.777-4.234 1.777zm0-1.415c1.309 0 2.34-.457 3.093-1.373.753-.916 1.13-2.17 1.13-3.763 0-1.601-.377-2.858-1.13-3.77-.754-.91-1.784-1.366-3.093-1.366-1.3 0-2.327.457-3.08 1.373-.753.915-1.13 2.17-1.13 3.763 0 1.601.379 2.857 1.136 3.769.757.911 1.782 1.367 3.074 1.367zm8.016 1.272h1.57v-7.942c0-1.03.27-1.87.81-2.52.538-.65 1.264-.975 2.176-.975.27 0 .513.017.731.053.218.036.379.077.482.125V9.88a3.76 3.76 0 0 0-.999-.13c-.793 0-1.479.212-2.058.636-.579.424-.975 1.016-1.19 1.777h-.047v-2.27h-1.475v12.804zm11.846-11.556c-1.15 0-2.095.39-2.836 1.17-.742.782-1.148 1.81-1.22 3.086h7.97c-.017-1.268-.383-2.295-1.101-3.08-.718-.784-1.655-1.176-2.813-1.176zm3.83 7.93h1.558c-.182 1.094-.757 1.996-1.725 2.705-.967.71-2.148 1.064-3.544 1.064-1.768 0-3.177-.582-4.228-1.748-1.05-1.165-1.576-2.754-1.576-4.767 0-1.99.522-3.583 1.564-4.78 1.043-1.197 2.424-1.795 4.145-1.795 1.689 0 3.033.562 4.032 1.688.999 1.125 1.498 2.643 1.498 4.554v.69h-9.61v.082c0 1.451.385 2.594 1.154 3.43.77.837 1.788 1.255 3.057 1.255.96 0 1.764-.22 2.414-.66.65-.44 1.07-1.012 1.26-1.718z"/>
        <path fill="#01C7C3" d="M.08 20.184h7.824v8.021H.08zM19.64 20.184h7.825v8.021H19.64zM19.64.132h7.825V18.18H19.64zM9.86 10.158h7.824v18.047H9.86z"/>
        <path fill="#00C4C0" d="M.08 10.158h7.824v8.021H.08zM9.86.132h7.824v8.021H9.86zM.08.132h7.824v8.021H.08z" opacity=".246"/>
    </g>
</svg>
